<svg xml:space="preserve" viewBox="325.44072 465.84072 455.76 157.67999999999998" version="1.1" xmlns:xlink="http://www.w3.org/1999/xlink" xmlns="http://www.w3.org/2000/svg" style="max-height: 500px" width="455.76" height="157.67999999999998">
<desc>Created with Fabric.js 5.2.4</desc>
<defs>
</defs>
<rect fill="transparent" height="100%" width="100%" y="0" x="0"/>
<g id="38f05400-b0f2-478d-b629-ecb376373484" transform="matrix(1 0 0 1 540 540)">
<rect height="1080" width="1080" ry="0" rx="0" y="-540" x="-540" style="stroke: none; stroke-width: 1; stroke-dasharray: none; stroke-linecap: butt; stroke-dashoffset: 0; stroke-linejoin: miter; stroke-miterlimit: 4; fill: rgb(255,255,255); fill-rule: nonzero; opacity: 1; visibility: hidden;"/>
</g>
<g id="882e89b9-f3e4-4bfa-bf47-6a0aa2d5cbd8" transform="matrix(1 0 0 1 540 540)">
</g>
<g transform="matrix(1 0 0 1 540 540)">
<g style="">
		<g transform="matrix(1 0 0 1 -51.71 0.14)">
<path stroke-linecap="round" d="M 0 0 C 9.9 0 19.8 0 30 0 C 41.95744681 33.68085106 41.95744681 33.68085106 47 48 C 50.65691002 40.88035218 53.24078687 33.37500799 55.71875 25.78125 C 58.64973919 17.13125752 61.86236227 8.5762098 65 0 C 74.9 0 84.8 0 95 0 C 95.02255062 10.93496839 95.04091485 21.86992146 95.05181217 32.8049078 C 95.0570411 37.88191018 95.06413892 42.95889589 95.07543945 48.03588867 C 95.08626799 52.93120552 95.09227676 57.82650629 95.09487724 62.72183418 C 95.09673155 64.59382951 95.10035228 66.46582391 95.10573006 68.33781242 C 95.11294004 70.95040699 95.11399096 73.56293427 95.11352539 76.17553711 C 95.11712067 76.95740387 95.12071594 77.73927063 95.12442017 78.54483032 C 95.11405216 83.88594784 95.11405216 83.88594784 94 85 C 87.73 85 81.46 85 75 85 C 74.67 66.85 74.34 48.7 74 30 C 72.08574219 35.70410156 72.08574219 35.70410156 70.1328125 41.5234375 C 69.11268216 44.55215938 68.09136078 47.58047373 67.06922913 50.60852051 C 65.99015455 53.80634162 64.9131985 57.00484083 63.84130859 60.20507812 C 62.61069019 63.87559314 61.37252238 67.54348472 60.1328125 71.2109375 C 59.74940704 72.35992523 59.36600159 73.50891296 58.97097778 74.69271851 C 58.43064407 76.28414169 58.43064407 76.28414169 57.87939453 77.90771484 C 57.56406769 78.84481293 57.24874084 79.78191101 56.92385864 80.74740601 C 56 83 56 83 54 85 C 50.8125 85.265625 50.8125 85.265625 47 85.25 C 45.741875 85.25515625 44.48375 85.2603125 43.1875 85.265625 C 40 85 40 85 38 83 C 37.24145508 81.16741943 37.24145508 81.16741943 36.51953125 78.92089844 C 36.24584717 78.07952332 35.97216309 77.23814819 35.69018555 76.37127686 C 35.2557312 75.00413544 35.2557312 75.00413544 34.8125 73.609375 C 34.50932861 72.672005 34.20615723 71.73463501 33.89379883 70.76885986 C 32.92346567 67.76438621 31.96159921 64.75727906 31 61.75 C 30.3521272 59.73809932 29.70369635 57.72637825 29.0546875 55.71484375 C 27.8597693 52.00990528 26.6685309 48.3038218 25.48046875 44.59667969 C 24.34402069 41.05633129 23.1858163 37.52418819 22 34 C 21.99191315 34.59468582 21.98382629 35.18937164 21.97549438 35.80207825 C 21.88954451 41.98261171 21.79004527 48.16282089 21.68261719 54.34301758 C 21.64429584 56.65057944 21.60944859 58.95820168 21.578125 61.26586914 C 21.53254318 64.57980963 21.47453712 67.89333327 21.4140625 71.20703125 C 21.39673569 72.75871758 21.39673569 72.75871758 21.37905884 74.3417511 C 21.35918915 75.3025206 21.33931946 76.2632901 21.31884766 77.25317383 C 21.30552399 78.09922684 21.29220032 78.94527985 21.2784729 79.81697083 C 21 82 21 82 19 85 C 12.73 85 6.46 85 0 85 C 0 56.95 0 28.9 0 0 Z" transform="translate(-47.56, -42.63)" style="stroke: none; stroke-width: 1; stroke-dasharray: none; stroke-linecap: butt; stroke-dashoffset: 0; stroke-linejoin: miter; stroke-miterlimit: 4; fill: rgb(0,0,0); fill-rule: nonzero; opacity: 1;"/>
</g>
		<g transform="matrix(1 0 0 1 154.41 -0.15)">
<path stroke-linecap="round" d="M 0 0 C 0.90473053 -0.00807175 1.80946106 -0.01614349 2.74160767 -0.02445984 C 4.66674878 -0.0383283 6.59191477 -0.04903802 8.51708984 -0.05688477 C 11.42985769 -0.07394519 14.34144477 -0.11778608 17.25390625 -0.16210938 C 29.17344413 -0.26237821 40.55785799 -0.19361489 49.73046875 8.5390625 C 52.95611808 12.5366621 53.93801213 16.71181115 54.4765625 21.73828125 C 53.79967023 28.05594239 52.42777904 32.43473916 47.4765625 36.61328125 C 46.86554688 37.07476562 46.25453125 37.53625 45.625 38.01171875 C 43.9570573 39.18043823 43.9570573 39.18043823 43.1015625 41.23828125 C 43.8234375 41.32078125 44.5453125 41.40328125 45.2890625 41.48828125 C 50.10081729 42.77141586 52.89798871 45.47641865 55.4140625 49.67578125 C 58.43509113 56.22134327 58.19618943 64.01201242 55.9140625 70.73828125 C 50.86080808 77.70828734 43.71034435 82.67163807 35.1015625 84.23828125 C 32.5544561 84.47434031 30.02914011 84.66225826 27.4765625 84.80078125 C 26.71617676 84.84323975 25.95579102 84.88569824 25.17236328 84.92944336 C 13.82620582 85.48523286 2.45743049 85.32405065 -8.8984375 85.23828125 C -10.44370992 82.14773642 -10.03688827 78.8909789 -10.02783203 75.49975586 C -10.02958435 74.70127731 -10.03133667 73.90279877 -10.03314209 73.0801239 C -10.03755328 70.43360234 -10.03462546 67.78714727 -10.03125 65.140625 C -10.03192318 63.30741869 -10.03289333 61.47421247 -10.03414917 59.64100647 C -10.03562509 55.79671378 -10.03347471 51.9524443 -10.02880859 48.1081543 C -10.02310736 43.16915257 -10.02639347 38.23020514 -10.03238106 33.29120541 C -10.03598609 29.50553474 -10.03484842 25.71987705 -10.03225327 21.93420601 C -10.03158404 20.11245276 -10.03241226 18.29069835 -10.03473282 16.46894646 C -10.03725883 13.92840302 -10.03341969 11.38794886 -10.02783203 8.84741211 C -10.02985626 8.08738892 -10.03188049 7.32736572 -10.03396606 6.54431152 C -10.0016761 -1.33910995 -7.00119195 0.05883456 0 0 Z M 11.1015625 18.23828125 C 11.1015625 22.85828125 11.1015625 27.47828125 11.1015625 32.23828125 C 19.36316282 33.61521464 24.73831745 34.14530924 32.1015625 30.23828125 C 33.50091263 27.43958098 33.35421655 25.33329333 33.1015625 22.23828125 C 31.24813475 19.67878579 30.16399857 19.25909327 27.1015625 18.23828125 C 24.36290963 18.16777011 21.65128662 18.1447036 18.9140625 18.17578125 C 17.78967773 18.18254883 17.78967773 18.18254883 16.64257812 18.18945312 C 14.79553867 18.20121771 12.94854037 18.2191526 11.1015625 18.23828125 Z M 11.1015625 50.23828125 C 11.1015625 55.84828125 11.1015625 61.45828125 11.1015625 67.23828125 C 15.0925 67.33109375 15.0925 67.33109375 19.1640625 67.42578125 C 19.987854 67.45309326 20.81164551 67.48040527 21.66040039 67.50854492 C 26.89426329 67.56683126 30.48714703 66.76004461 35.1015625 64.23828125 C 37.4359183 61.35367062 37.4359183 61.35367062 37.0390625 57.73828125 C 36.43583436 54.16745896 36.43583436 54.16745896 33.9140625 52.36328125 C 28.59083552 50.23399046 23.41060928 50.12215817 17.7265625 50.17578125 C 15.5403125 50.19640625 13.3540625 50.21703125 11.1015625 50.23828125 Z" transform="translate(-23.79, -42.57)" style="stroke: none; stroke-width: 1; stroke-dasharray: none; stroke-linecap: butt; stroke-dashoffset: 0; stroke-linejoin: miter; stroke-miterlimit: 4; fill: rgb(0,0,0); fill-rule: nonzero; opacity: 1;"/>
</g>
		<g transform="matrix(1 0 0 1 58.94 0.21)">
<path stroke-linecap="round" d="M 0 0 C 53.26067073 0 53.26067073 0 67.734375 13.65234375 C 75.36681597 21.56113172 78.00604941 31.05056353 78.4375 41.9375 C 78.09347051 53.3652623 73.99440385 63.61802694 66.1875 71.9296875 C 48.06289435 88.95804684 23.54958271 85 0 85 C 0 56.95 0 28.9 0 0 Z M 20 19 C 20 34.18 20 49.36 20 65 C 36.02213461 65.57286175 36.02213461 65.57286175 50 59 C 55.51139689 52.07871088 56.68271677 45.70463879 56 37 C 54.8956106 30.82646323 51.87437356 27.28234374 47.046875 23.40625 C 39.14592662 17.97811753 29.1179385 19 20 19 Z" transform="translate(-39.22, -42.7)" style="stroke: none; stroke-width: 1; stroke-dasharray: none; stroke-linecap: butt; stroke-dashoffset: 0; stroke-linejoin: miter; stroke-miterlimit: 4; fill: rgb(0,0,0); fill-rule: nonzero; opacity: 1;"/>
</g>
		<g transform="matrix(1 0 0 1 -154.28 0.08)">
<path stroke-linecap="round" d="M 0 0 C 22.44 0 44.88 0 68 0 C 68 16 68 16 67 18 C 59.41 18 51.82 18 44 18 C 44 39.78 44 61.56 44 84 C 41.72108967 85.13945516 40.43217896 85.12894214 37.90234375 85.1328125 C 36.70061523 85.13474609 36.70061523 85.13474609 35.47460938 85.13671875 C 34.63736328 85.13285156 33.80011719 85.12898438 32.9375 85.125 C 32.09638672 85.12886719 31.25527344 85.13273437 30.38867188 85.13671875 C 24.12662682 85.12662682 24.12662682 85.12662682 23 84 C 22.90586313 81.94443339 22.88257002 79.88559819 22.88647461 77.82788086 C 22.88632858 77.18399918 22.88618256 76.54011749 22.8860321 75.87672424 C 22.88673115 73.73939697 22.89452309 71.60215587 22.90234375 69.46484375 C 22.90420796 67.98653715 22.90563185 66.50822993 22.90663147 65.02992249 C 22.91045641 61.13201198 22.92028648 57.23413851 22.93133545 53.33624268 C 22.94155008 49.36153667 22.9461292 45.38682471 22.95117188 41.41210938 C 22.96190878 33.60805404 22.97950538 25.80403692 23 18 C 15.41 18 7.82 18 0 18 C 0 12.06 0 6.12 0 0 Z" transform="translate(-34, -42.57)" style="stroke: none; stroke-width: 1; stroke-dasharray: none; stroke-linecap: butt; stroke-dashoffset: 0; stroke-linejoin: miter; stroke-miterlimit: 4; fill: rgb(0,0,0); fill-rule: nonzero; opacity: 1;"/>
</g>
		<g transform="matrix(1 0 0 1 58.81 0.01)">
<path stroke-linecap="round" d="M 0 0 C 39 0 39 0 52 3 C 52 3.33 52 3.66 52 4 C 50.783125 4.020625 49.56625 4.04125 48.3125 4.0625 C 47.28576172 4.07990234 47.28576172 4.07990234 46.23828125 4.09765625 C 44 4 44 4 41.86254883 3.50219727 C 38.2206248 2.86326868 34.64523303 2.85697635 30.9609375 2.8671875 C 30.19826569 2.86623077 29.43559387 2.86527405 28.64981079 2.86428833 C 27.04453448 2.86361026 25.43925536 2.86543844 23.83398438 2.86962891 C 21.37623974 2.87499729 18.9186766 2.86966371 16.4609375 2.86328125 C 14.8984371 2.86394181 13.33593681 2.86522251 11.7734375 2.8671875 C 11.03902435 2.86516327 10.30461121 2.86313904 9.54794312 2.86105347 C 6.42651208 2.87543074 3.98444194 3.00518602 1 4 C 1.14235468 10.3125834 1.28894167 16.62505971 1.4375 22.9375 C 1.45923279 23.87094238 1.48096558 24.80438477 1.50335693 25.76611328 C 1.79016243 37.98418527 2.11777832 50.19361896 2.78295898 62.39819336 C 3.02635795 67.40260293 2.90916082 72.13882008 2.23193359 77.10742188 C 1.93918049 79.17849774 1.93918049 79.17849774 2 82 C 7.60168515 81.98039353 13.20183981 81.92811741 18.80297852 81.84741211 C 20.70263296 81.8244201 22.60241147 81.80988121 24.50219727 81.80444336 C 40.65959631 81.74912437 53.47278732 79.96281666 65.67578125 68.4140625 C 73.65704325 59.97729423 75.39397358 49.24737763 75.2109375 38.0859375 C 74.90254479 29.78217821 72.24645904 23.68850076 67.40234375 17.0078125 C 66.04871999 15.06975508 65.00160111 13.13738802 64 11 C 71.7843339 16.80009193 75.98163032 24.00999302 77.71484375 33.6015625 C 79.18962553 46.00589146 77.1954786 57.75942172 69.6875 68.0078125 C 60.90118867 78.38054115 51.23656394 81.69085902 38 85 C 25.46 85 12.92 85 0 85 C 0 56.95 0 28.9 0 0 Z" transform="translate(-39.08, -42.5)" style="stroke: none; stroke-width: 1; stroke-dasharray: none; stroke-linecap: butt; stroke-dashoffset: 0; stroke-linejoin: miter; stroke-miterlimit: 4; fill: rgb(0,0,0); fill-rule: nonzero; opacity: 1;"/>
</g>
		<g transform="matrix(1 0 0 1 -32.71 0.14)">
<path stroke-linecap="round" d="M 0 0 C 0.66 0 1.32 0 2 0 C 2.02312297 10.93496471 2.04091485 21.86992366 2.05181217 32.8049078 C 2.0570411 37.88191018 2.06413892 42.95889589 2.07543945 48.03588867 C 2.08626799 52.93120552 2.09227676 57.82650629 2.09487724 62.72183418 C 2.09673155 64.59382951 2.10035228 66.46582391 2.10573006 68.33781242 C 2.11294004 70.95040699 2.11399096 73.56293427 2.11352539 76.17553711 C 2.11712067 76.95740387 2.12071594 77.73927063 2.12442017 78.54483032 C 2.11405216 83.88594784 2.11405216 83.88594784 1 85 C -5.27 85 -11.54 85 -18 85 C -18.33 66.85 -18.66 48.7 -19 30 C -20.27617187 33.80273438 -21.55234375 37.60546875 -22.8671875 41.5234375 C -23.88731784 44.55215938 -24.90863922 47.58047373 -25.93077087 50.60852051 C -27.00984545 53.80634162 -28.0868015 57.00484083 -29.15869141 60.20507812 C -30.38930981 63.87559314 -31.62747762 67.54348472 -32.8671875 71.2109375 C -33.25059296 72.35992523 -33.63399841 73.50891296 -34.02902222 74.69271851 C -34.56935593 76.28414169 -34.56935593 76.28414169 -35.12060547 77.90771484 C -35.43593231 78.84481293 -35.75125916 79.78191101 -36.07614136 80.74740601 C -37 83 -37 83 -39 85 C -42.1875 85.265625 -42.1875 85.265625 -46 85.25 C -47.258125 85.25515625 -48.51625 85.2603125 -49.8125 85.265625 C -53 85 -53 85 -55 83 C -54.625 80.875 -54.625 80.875 -54 79 C -53.67 80.32 -53.34 81.64 -53 83 C -48.38 83 -43.76 83 -39 83 C -38.73058594 81.6903125 -38.46117187 80.380625 -38.18359375 79.03125 C -37.14475013 74.37142394 -35.70093425 69.97813016 -34.0625 65.5 C -31.66380728 58.82919264 -29.36819901 52.13173752 -27.1640625 45.39453125 C -26.91891403 44.64771088 -26.67376556 43.9008905 -26.42118835 43.13143921 C -25.42699057 40.10203207 -24.43298819 37.07266358 -23.45315552 34.03857422 C -22.76045867 31.89461454 -22.05878008 29.75377808 -21.35546875 27.61328125 C -20.94965576 26.36329346 -20.54384277 25.11330566 -20.12573242 23.82543945 C -19 21 -19 21 -17 20 C -17 40.46 -17 60.92 -17 82 C -11.39 82 -5.78 82 0 82 C 0 54.94 0 27.88 0 0 Z" transform="translate(26.44, -42.63)" style="stroke: none; stroke-width: 1; stroke-dasharray: none; stroke-linecap: butt; stroke-dashoffset: 0; stroke-linejoin: miter; stroke-miterlimit: 4; fill: rgb(0,0,0); fill-rule: nonzero; opacity: 1;"/>
</g>
		<g transform="matrix(1 0 0 1 -154.23 0.08)">
<path stroke-linecap="round" d="M 0 0 C 0.33 0 0.66 0 1 0 C 1 5.28 1 10.56 1 16 C 8.59 16 16.18 16 24 16 C 24 38.11 24 60.22 24 83 C 29.94 83 35.88 83 42 83 C 42 60.89 42 38.78 42 16 C 49.92 16 57.84 16 66 16 C 66 10.72 66 5.44 66 0 C 66.66 0 67.32 0 68 0 C 68.02690844 2.62506802 68.04679404 5.24986173 68.0625 7.875 C 68.07087891 8.62136719 68.07925781 9.36773437 68.08789062 10.13671875 C 68.11328125 15.7734375 68.11328125 15.7734375 67 18 C 59.41 18 51.82 18 44 18 C 44 39.78 44 61.56 44 84 C 41.72108967 85.13945516 40.43217896 85.12894214 37.90234375 85.1328125 C 36.70061523 85.13474609 36.70061523 85.13474609 35.47460938 85.13671875 C 34.63736328 85.13285156 33.80011719 85.12898438 32.9375 85.125 C 32.09638672 85.12886719 31.25527344 85.13273437 30.38867188 85.13671875 C 24.12662682 85.12662682 24.12662682 85.12662682 23 84 C 22.90586313 81.94443339 22.88257002 79.88559819 22.88647461 77.82788086 C 22.88632858 77.18399918 22.88618256 76.54011749 22.8860321 75.87672424 C 22.88673115 73.73939697 22.89452309 71.60215587 22.90234375 69.46484375 C 22.90420796 67.98653715 22.90563185 66.50822993 22.90663147 65.02992249 C 22.91045641 61.13201198 22.92028648 57.23413851 22.93133545 53.33624268 C 22.94155008 49.36153667 22.9461292 45.38682471 22.95117188 41.41210938 C 22.96190878 33.60805404 22.97950538 25.80403692 23 18 C 15.41 18 7.82 18 0 18 C 0 12.06 0 6.12 0 0 Z" transform="translate(-34.05, -42.57)" style="stroke: none; stroke-width: 1; stroke-dasharray: none; stroke-linecap: butt; stroke-dashoffset: 0; stroke-linejoin: miter; stroke-miterlimit: 4; fill: rgb(0,0,0); fill-rule: nonzero; opacity: 1;"/>
</g>
		<g transform="matrix(1 0 0 1 154.24 0)">
<path stroke-linecap="round" d="M 0 0 C 1.12591553 0.00523682 2.25183105 0.01047363 3.41186523 0.01586914 C 4.62680664 0.0190918 5.84174805 0.02231445 7.09350586 0.02563477 C 8.37290039 0.03401367 9.65229492 0.04239258 10.97045898 0.05102539 C 12.2537207 0.05553711 13.53698242 0.06004883 14.85913086 0.06469727 C 18.04211921 0.07652994 21.22501661 0.09301471 24.40795898 0.11352539 C 24.73795898 0.77352539 25.06795898 1.43352539 25.40795898 2.11352539 C 16.49795898 1.78352539 7.58795898 1.45352539 -1.59204102 1.11352539 C -1.59204102 28.17352539 -1.59204102 55.23352539 -1.59204102 83.11352539 C 27.76020917 84.75411528 27.76020917 84.75411528 55.40795898 75.11352539 C 60.53878326 69.66507866 61.63563122 64.65383161 61.57592773 57.44165039 C 61.33561434 54.11079495 60.48214264 51.26893989 59.40795898 48.11352539 C 62.43430115 50.87670737 63.3220765 52.8764873 63.61108398 57.03930664 C 63.71901646 64.8374283 63.32913131 69.48419007 58.34545898 75.67602539 C 50.91504031 81.84169195 43.24539755 84.16251886 33.78295898 84.67602539 C 33.02257324 84.71848389 32.2621875 84.76094238 31.47875977 84.8046875 C 20.13260231 85.360477 8.76382698 85.19929479 -2.59204102 85.11352539 C -4.13731343 82.02298056 -3.73049178 78.76622304 -3.72143555 75.375 C -3.72318787 74.57652145 -3.72494019 73.77804291 -3.72674561 72.95536804 C -3.73115679 70.30884648 -3.72822898 67.66239141 -3.72485352 65.01586914 C -3.7255267 63.18266283 -3.72649684 61.34945661 -3.72775269 59.51625061 C -3.72922861 55.67195792 -3.72707822 51.82768844 -3.72241211 47.98339844 C -3.71671087 43.04439672 -3.71999699 38.10544928 -3.72598457 33.16644955 C -3.7295896 29.38077888 -3.72845194 25.59512119 -3.72585678 21.80945015 C -3.72518756 19.9876969 -3.72601577 18.16594249 -3.72833633 16.3441906 C -3.73086234 13.80364716 -3.7270232 11.263193 -3.72143555 8.72265625 C -3.72345978 7.96263306 -3.72548401 7.20260986 -3.72756958 6.41955566 C -3.70193961 0.16213638 -3.70193961 0.16213638 0 0 Z" transform="translate(-29.92, -42.6)" style="stroke: none; stroke-width: 1; stroke-dasharray: none; stroke-linecap: butt; stroke-dashoffset: 0; stroke-linejoin: miter; stroke-miterlimit: 4; fill: rgb(0,0,0); fill-rule: nonzero; opacity: 1;"/>
</g>
		<g transform="matrix(1 0 0 1 -88.22 0.01)">
<path stroke-linecap="round" d="M 0 0 C 0.33 0 0.66 0 1 0 C 1 27.06 1 54.12 1 82 C 6.61 82 12.22 82 18 82 C 18 61.54 18 41.08 18 20 C 18.66 20.33 19.32 20.66 20 21 C 22.10276086 28.12724296 22.2239241 34.76128036 22.046875 42.1484375 C 22.02659241 43.28278229 22.00630981 44.41712708 21.9854126 45.58584595 C 21.9400737 47.96765643 21.88934733 50.34936987 21.83349609 52.73095703 C 21.74978666 56.3843108 21.68821042 60.03758351 21.62890625 63.69140625 C 21.58204569 66.01044364 21.5339136 68.32945577 21.484375 70.6484375 C 21.46654968 71.74215668 21.44872437 72.83587585 21.43035889 73.96273804 C 21.40403381 74.97454132 21.37770874 75.9863446 21.35058594 77.02880859 C 21.33122986 77.91877533 21.31187378 78.80874207 21.29193115 79.72567749 C 21 82 21 82 19 85 C 12.73 85 6.46 85 0 85 C 0 56.95 0 28.9 0 0 Z" transform="translate(-11.05, -42.5)" style="stroke: none; stroke-width: 1; stroke-dasharray: none; stroke-linecap: butt; stroke-dashoffset: 0; stroke-linejoin: miter; stroke-miterlimit: 4; fill: rgb(0,0,0); fill-rule: nonzero; opacity: 1;"/>
</g>
		<g transform="matrix(1 0 0 1 58.81 5.66)">
<path stroke-linecap="round" d="M 0 0 C 7.7843339 5.80009193 11.98163032 13.00999302 13.71484375 22.6015625 C 15.18962553 35.00589146 13.1954786 46.75942172 5.6875 57.0078125 C -2.63550003 66.83357642 -13.38862397 71.9630827 -26 74 C -32.57185769 74.46109622 -39.16792896 74.28541816 -45.75 74.1875 C -47.52603026 74.17241866 -49.30207297 74.15873639 -51.078125 74.14648438 C -55.38572989 74.11376858 -59.6927238 74.06217936 -64 74 C -64 73.34 -64 72.68 -64 72 C -62.87207031 72.00112793 -61.74414062 72.00225586 -60.58203125 72.00341797 C -56.31722178 71.99969159 -52.05350585 71.95640007 -47.7890625 71.90234375 C -45.958406 71.88439614 -44.12761649 71.87657584 -42.296875 71.87988281 C -27.00265996 71.89665279 -11.56191245 70.19531523 0 59 C 0.54914063 58.47792969 1.09828125 57.95585937 1.6640625 57.41796875 C 9.66593226 49.00220918 11.39384727 38.23967527 11.2109375 27.0859375 C 10.90254479 18.78217821 8.24645904 12.68850076 3.40234375 6.0078125 C 2.04871999 4.06975508 1.00160111 2.13738802 0 0 Z" transform="translate(24.92, -37.15)" style="stroke: none; stroke-width: 1; stroke-dasharray: none; stroke-linecap: butt; stroke-dashoffset: 0; stroke-linejoin: miter; stroke-miterlimit: 4; fill: rgb(0,0,0); fill-rule: nonzero; opacity: 1;"/>
</g>
		<g transform="matrix(1 0 0 1 55.22 -0.49)">
<path stroke-linecap="round" d="M 0 0 C 24.77272727 0 24.77272727 0 35 10 C 34.67 10.66 34.34 11.32 34 12 C 33.56429687 11.59007813 33.12859375 11.18015625 32.6796875 10.7578125 C 32.08414063 10.21898438 31.48859375 9.68015625 30.875 9.125 C 30.29492188 8.59132813 29.71484375 8.05765625 29.1171875 7.5078125 C 21.49639759 2.08046028 10.54802507 2.89979211 2 2 C 2 17.18 2 32.36 2 48 C 8.6 47.67 15.2 47.34 22 47 C 20 49 20 49 16 50 C 10.72 50 5.44 50 0 50 C 0 33.5 0 17 0 0 Z" transform="translate(-17.5, -25)" style="stroke: none; stroke-width: 1; stroke-dasharray: none; stroke-linecap: butt; stroke-dashoffset: 0; stroke-linejoin: miter; stroke-miterlimit: 4; fill: rgb(0,0,0); fill-rule: nonzero; opacity: 1;"/>
</g>
		<g transform="matrix(1 0 0 1 -88.25 11.17)">
<path stroke-linecap="round" d="M 0 0 C 3.08047817 3.08047817 2.96121747 6.26542973 3.05648804 10.52645874 C 3.05322519 13.6373398 3.00807924 16.74514208 2.94921875 19.85546875 C 2.9303511 20.99405838 2.91148346 22.13264801 2.89204407 23.30574036 C 2.85026882 25.70542513 2.80554277 28.10506012 2.75805664 30.50463867 C 2.6875549 34.1846344 2.63337281 37.86464161 2.58007812 41.54492188 C 2.53745285 43.87762255 2.49386623 46.2103059 2.44921875 48.54296875 C 2.43453049 49.64609909 2.41984222 50.74922943 2.40470886 51.88578796 C 2.38161148 52.90727432 2.3585141 53.92876068 2.3347168 54.98120117 C 2.31837692 55.88021652 2.30203705 56.77923187 2.28520203 57.70549011 C 2 60 2 60 0 63 C -1.97119141 63.34057617 -1.97119141 63.34057617 -4.3515625 63.29296875 C -5.20234375 63.28330078 -6.053125 63.27363281 -6.9296875 63.26367188 C -7.81914063 63.23853516 -8.70859375 63.21339844 -9.625 63.1875 C -10.5221875 63.17396484 -11.419375 63.16042969 -12.34375 63.14648438 C -14.56309789 63.11106925 -16.78125188 63.06168461 -19 63 C -19 62.34 -19 61.68 -19 61 C -12.73 61 -6.46 61 0 61 C 0 40.87 0 20.74 0 0 Z" transform="translate(7.97, -31.66)" style="stroke: none; stroke-width: 1; stroke-dasharray: none; stroke-linecap: butt; stroke-dashoffset: 0; stroke-linejoin: miter; stroke-miterlimit: 4; fill: rgb(0,0,0); fill-rule: nonzero; opacity: 1;"/>
</g>
		<g transform="matrix(1 0 0 1 142.22 -0.49)">
<path stroke-linecap="round" d="M 0 0 C 8.25 0 16.5 0 25 0 C 25 0.33 25 0.66 25 1 C 17.08 1 9.16 1 1 1 C 1.33 27.07 1.66 53.14 2 80 C 20.315 80.495 20.315 80.495 39 81 C 39 81.33 39 81.66 39 82 C 26.13 82 13.26 82 0 82 C 0 54.94 0 27.88 0 0 Z" transform="translate(-19.5, -41)" style="stroke: none; stroke-width: 1; stroke-dasharray: none; stroke-linecap: butt; stroke-dashoffset: 0; stroke-linejoin: miter; stroke-miterlimit: 4; fill: rgb(0,0,0); fill-rule: nonzero; opacity: 1;"/>
</g>
		<g transform="matrix(1 0 0 1 -42.78 11.14)">
<path stroke-linecap="round" d="M 0 0 C 0.33 0 0.66 0 1 0 C 0.4396152 7.17921822 -1.63075257 13.51691263 -3.96484375 20.3046875 C -4.35821426 21.46501495 -4.75158478 22.62534241 -5.15687561 23.8208313 C -5.98619639 26.26105429 -6.81931392 28.69998987 -7.65600586 31.13769531 C -8.93922297 34.8800248 -10.20773454 38.62711086 -11.47460938 42.375 C -12.28298627 44.7476917 -13.09220172 47.12009791 -13.90234375 49.4921875 C -14.28261215 50.6160788 -14.66288055 51.73997009 -15.05467224 52.8979187 C -15.41166702 53.93304596 -15.7686618 54.96817322 -16.13647461 56.03466797 C -16.44878525 56.94763641 -16.76109589 57.86060486 -17.08287048 58.80123901 C -18 61 -18 61 -20 63 C -23.1875 63.265625 -23.1875 63.265625 -27 63.25 C -28.258125 63.25515625 -29.51625 63.2603125 -30.8125 63.265625 C -34 63 -34 63 -36 61 C -35.625 58.875 -35.625 58.875 -35 57 C -34.67 58.32 -34.34 59.64 -34 61 C -29.38 61 -24.76 61 -20 61 C -19.73058594 59.69160156 -19.46117187 58.38320312 -19.18359375 57.03515625 C -18.14045029 52.35695393 -16.69939659 47.93667945 -15.0625 43.4375 C -14.44675148 41.7126551 -13.83226595 39.98735903 -13.21875 38.26171875 C -12.87457031 37.29540527 -12.53039062 36.3290918 -12.17578125 35.33349609 C -9.76107531 28.48748386 -7.41760052 21.61669349 -5.0625 14.75 C -4.56068566 13.28831037 -4.05881507 11.82664005 -3.55688477 10.36499023 C -2.37063387 6.91020698 -1.18510149 3.45517773 0 0 Z" transform="translate(17.5, -31.63)" style="stroke: none; stroke-width: 1; stroke-dasharray: none; stroke-linecap: butt; stroke-dashoffset: 0; stroke-linejoin: miter; stroke-miterlimit: 4; fill: rgb(0,0,0); fill-rule: nonzero; opacity: 1;"/>
</g>
		<g transform="matrix(1 0 0 1 154.83 24.05)">
<path stroke-linecap="round" d="M 0 0 C 3.02634217 2.76318198 3.91411752 4.76296191 4.203125 8.92578125 C 4.31105748 16.72390291 3.92117233 21.37066468 -1.0625 27.5625 C -8.49291867 33.72816656 -16.16256143 36.04899347 -25.625 36.5625 C -26.38538574 36.6049585 -27.14577148 36.64741699 -27.92919922 36.69116211 C -39.27535668 37.24695161 -50.64413201 37.0857694 -62 37 C -62 36.34 -62 35.68 -62 35 C -60.8354126 34.98018066 -59.6708252 34.96036133 -58.47094727 34.93994141 C -54.11527311 34.86338298 -49.75991134 34.77474639 -45.40454102 34.68261719 C -43.52602341 34.64453368 -41.647438 34.60964634 -39.76879883 34.578125 C -37.05525614 34.53202287 -34.34217208 34.47410715 -31.62890625 34.4140625 C -30.80040665 34.40251129 -29.97190704 34.39096008 -29.11830139 34.37905884 C -19.9391154 34.15111719 -11.50675234 32.5573244 -4 27 C 1.13082428 21.55155327 2.22767224 16.54030622 2.16796875 9.328125 C 1.92765535 5.99726956 1.07418366 3.1554145 0 0 Z" transform="translate(28.89, -18.54)" style="stroke: none; stroke-width: 1; stroke-dasharray: none; stroke-linecap: butt; stroke-dashoffset: 0; stroke-linejoin: miter; stroke-miterlimit: 4; fill: rgb(0,0,0); fill-rule: nonzero; opacity: 1;"/>
</g>
		<g transform="matrix(1 0 0 1 154.27 16.07)">
<path stroke-linecap="round" d="M 0 0 C 3.18773217 -0.05428494 6.37452636 -0.09381088 9.5625 -0.125 C 10.45775391 -0.14175781 11.35300781 -0.15851563 12.27539062 -0.17578125 C 17.58617609 -0.2146881 22.00931746 0.1218575 27 2 C 29.2661295 4.85729372 29.19788695 7.43803486 29 11 C 28.731875 10.401875 28.46375 9.80375 28.1875 9.1875 C 26.13812334 5.41233247 24.86085524 4.29236593 20.6875 2.875 C 14.56110638 1.49569937 8.24860374 1.36049637 2 1 C 2 6.61 2 12.22 2 18 C 4.660625 17.896875 7.32125 17.79375 10.0625 17.6875 C 10.8862915 17.66260498 11.71008301 17.63770996 12.55883789 17.61206055 C 18.46137807 17.32156312 23.66274332 16.33725668 28 12 C 28 13.32 28 14.64 28 16 C 24.53542956 18.78398075 21.8553758 19.36629121 17.48046875 19.29296875 C 16.45888672 19.28330078 15.43730469 19.27363281 14.38476562 19.26367188 C 13.32966797 19.23853516 12.27457031 19.21339844 11.1875 19.1875 C 9.57584961 19.16719727 9.57584961 19.16719727 7.93164062 19.14648438 C 5.28754459 19.11122976 2.64370744 19.05742566 0 19 C 0 12.73 0 6.46 0 0 Z" transform="translate(-14.54, -9.56)" style="stroke: none; stroke-width: 1; stroke-dasharray: none; stroke-linecap: butt; stroke-dashoffset: 0; stroke-linejoin: miter; stroke-miterlimit: 4; fill: rgb(0,0,0); fill-rule: nonzero; opacity: 1;"/>
</g>
		<g transform="matrix(1 0 0 1 151.22 -17.63)">
<path stroke-linecap="round" d="M 0 0 C 2.866875 -0.061875 5.73375 -0.12375 8.6875 -0.1875 C 10.02880981 -0.22846802 10.02880981 -0.22846802 11.3972168 -0.27026367 C 16.02323483 -0.3185108 19.34468685 -0.19374611 23 3 C 23 3.99 23 4.98 23 6 C 22.34644531 5.51917969 21.69289063 5.03835937 21.01953125 4.54296875 C 17.1587348 2.57011675 13.96060365 2.44615382 9.6875 2.3125 C 8.94693359 2.27833984 8.20636719 2.24417969 7.44335938 2.20898438 C 5.62941836 2.12706446 3.81473647 2.06184178 2 2 C 2 6.62 2 11.24 2 16 C 4.18625 16.04125 6.3725 16.0825 8.625 16.125 C 10.46964844 16.15980469 10.46964844 16.15980469 12.3515625 16.1953125 C 15.94316041 16.0030428 18.66661175 15.30258556 22 14 C 21.67 15.32 21.34 16.64 21 18 C 14.07 18 7.14 18 0 18 C 0 12.06 0 6.12 0 0 Z" transform="translate(-11.5, -8.86)" style="stroke: none; stroke-width: 1; stroke-dasharray: none; stroke-linecap: butt; stroke-dashoffset: 0; stroke-linejoin: miter; stroke-miterlimit: 4; fill: rgb(0,0,0); fill-rule: nonzero; opacity: 1;"/>
</g>
		<g transform="matrix(1 0 0 1 -59.28 -15.99)">
<path stroke-linecap="round" d="M 0 0 C 0.66 0 1.32 0 2 0 C 13.89438718 33.50178301 13.89438718 33.50178301 19 48 C 19.29648438 47.38640625 19.59296875 46.7728125 19.8984375 46.140625 C 21.05882978 43.88567831 22.43586289 41.99071996 24 40 C 23.27991594 44.60853797 21.68704061 48.67237409 20 53 C 19.34 53 18.68 53 18 53 C 14.65833531 43.66962731 11.32586921 34.33601271 8 25 C 7.62230469 23.94119629 7.24460938 22.88239258 6.85546875 21.79150391 C 5.87895219 19.04985136 4.90723758 16.30655634 3.9375 13.5625 C 3.50812134 12.35932129 3.50812134 12.35932129 3.07006836 11.13183594 C 1.77129032 7.44069834 0.62457162 3.87851266 0 0 Z" transform="translate(-12, -26.5)" style="stroke: none; stroke-width: 1; stroke-dasharray: none; stroke-linecap: butt; stroke-dashoffset: 0; stroke-linejoin: miter; stroke-miterlimit: 4; fill: rgb(0,0,0); fill-rule: nonzero; opacity: 1;"/>
</g>
		<g transform="matrix(1 0 0 1 177.38 -17.99)">
<path stroke-linecap="round" d="M 0 0 C 4.95594645 4.43426788 6.70177204 7.77913804 7.3125 14.375 C 6.76212002 20.75940782 5.36145942 25.16671494 0.375 29.375 C -0.23601562 29.83648437 -0.84703125 30.29796875 -1.4765625 30.7734375 C -3.1445052 31.94215698 -3.1445052 31.94215698 -4 34 C -3.01 34.33 -2.02 34.66 -1 35 C -3.31 34.67 -5.62 34.34 -8 34 C -7 31 -7 31 -3.6875 29.25 C 0.31336423 27.05199434 2.64462335 24.38883869 4 20 C 4.81865069 13.59964009 4.48328148 8.57325037 1 3 C 0.67 2.01 0.34 1.02 0 0 Z" transform="translate(0.34, -17.5)" style="stroke: none; stroke-width: 1; stroke-dasharray: none; stroke-linecap: butt; stroke-dashoffset: 0; stroke-linejoin: miter; stroke-miterlimit: 4; fill: rgb(0,0,0); fill-rule: nonzero; opacity: 1;"/>
</g>
		<g transform="matrix(1 0 0 1 -84.28 -36.49)">
<path stroke-linecap="round" d="M 0 0 C 8.91 0 17.82 0 27 0 C 27.33 1.32 27.66 2.64 28 4 C 27.34 3.67 26.68 3.34 26 3 C 24.2595583 2.91550372 22.51590278 2.89276976 20.7734375 2.90234375 C 19.2265625 2.90717773 19.2265625 2.90717773 17.6484375 2.91210938 C 16.56820312 2.92048828 15.48796875 2.92886719 14.375 2.9375 C 13.28703125 2.94201172 12.1990625 2.94652344 11.078125 2.95117188 C 8.38536211 2.96298224 5.69270812 2.97945222 3 3 C 2.34 5.97 1.68 8.94 1 12 C 0.67 12 0.34 12 0 12 C 0 8.04 0 4.08 0 0 Z" transform="translate(-14, -6)" style="stroke: none; stroke-width: 1; stroke-dasharray: none; stroke-linecap: butt; stroke-dashoffset: 0; stroke-linejoin: miter; stroke-miterlimit: 4; fill: rgb(0,0,0); fill-rule: nonzero; opacity: 1;"/>
</g>
		<g transform="matrix(1 0 0 1 -71.78 4.51)">
<path stroke-linecap="round" d="M 0 0 C 2 2 2 2 2 5 C 2.66 5 3.32 5 4 5 C 4.27263672 6.19496094 4.27263672 6.19496094 4.55078125 7.4140625 C 6.03971401 13.93521438 6.03971401 13.93521438 8.625 20.0625 C 10.71417502 24.52573755 10.74844007 29.12494198 11 34 C 8.4501552 31.4501552 7.94239298 29.25251308 6.8359375 25.8203125 C 6.43632812 24.58152344 6.03671875 23.34273437 5.625 22.06640625 C 5.42003906 21.41945801 5.21507812 20.77250977 5.00390625 20.10595703 C 4.37870238 18.13666192 3.74088246 16.17178264 3.1015625 14.20703125 C 0 4.50961343 0 4.50961343 0 0 Z" transform="translate(-5.5, -17)" style="stroke: none; stroke-width: 1; stroke-dasharray: none; stroke-linecap: butt; stroke-dashoffset: 0; stroke-linejoin: miter; stroke-miterlimit: 4; fill: rgb(0,0,0); fill-rule: nonzero; opacity: 1;"/>
</g>
		<g transform="matrix(1 0 0 1 154.22 16.66)">
<path stroke-linecap="round" d="M 0 0 C 0.33 0 0.66 0 1 0 C 1 5.61 1 11.22 1 17 C 3.660625 16.896875 6.32125 16.79375 9.0625 16.6875 C 9.8862915 16.66260498 10.71008301 16.63770996 11.55883789 16.61206055 C 17.46137807 16.32156312 22.66274332 15.33725668 27 11 C 27 12.32 27 13.64 27 15 C 23.16357821 18.71940675 18.76295204 18.31340175 13.74023438 18.26367188 C 12.73283203 18.23853516 11.72542969 18.21339844 10.6875 18.1875 C 9.66076172 18.17396484 8.63402344 18.16042969 7.57617188 18.14648438 C 5.05055511 18.11124321 2.52520944 18.05743947 0 18 C 0 12.06 0 6.12 0 0 Z" transform="translate(-13.5, -9.15)" style="stroke: none; stroke-width: 1; stroke-dasharray: none; stroke-linecap: butt; stroke-dashoffset: 0; stroke-linejoin: miter; stroke-miterlimit: 4; fill: rgb(0,0,0); fill-rule: nonzero; opacity: 1;"/>
</g>
		<g transform="matrix(1 0 0 1 69.22 37.12)">
<path stroke-linecap="round" d="M 0 0 C 0.99 0.33 1.98 0.66 3 1 C -11.66719359 9.96328497 -11.66719359 9.96328497 -18.14135742 8.52392578 C -18.75470947 8.35103027 -19.36806152 8.17813477 -20 8 C -19.4652002 7.79318604 -18.93040039 7.58637207 -18.37939453 7.37329102 C -15.96087164 6.43736839 -13.54293028 5.49995248 -11.125 4.5625 C -10.28324219 4.23701172 -9.44148438 3.91152344 -8.57421875 3.57617188 C -7.76855469 3.26357422 -6.96289062 2.95097656 -6.1328125 2.62890625 C -5.01737061 2.1968689 -5.01737061 2.1968689 -3.87939453 1.75610352 C -1.95624015 1.01189526 -1.95624015 1.01189526 0 0 Z" transform="translate(8.5, -4.61)" style="stroke: none; stroke-width: 1; stroke-dasharray: none; stroke-linecap: butt; stroke-dashoffset: 0; stroke-linejoin: miter; stroke-miterlimit: 4; fill: rgb(0,0,0); fill-rule: nonzero; opacity: 1;"/>
</g>
		<g transform="matrix(1 0 0 1 -36.78 -32.99)">
<path stroke-linecap="round" d="M 0 0 C 0.33 0 0.66 0 1 0 C 1 2.31 1 4.62 1 7 C 0.34 7 -0.32 7 -1 7 C -0.938125 7.680625 -0.87625 8.36125 -0.8125 9.0625 C -1.05868263 12.91936125 -2.35802162 15.51079594 -4 19 C -4.66 19 -5.32 19 -6 19 C -4.70024676 12.28460827 -2.70071112 6.27980887 0 0 Z" transform="translate(2.5, -9.5)" style="stroke: none; stroke-width: 1; stroke-dasharray: none; stroke-linecap: butt; stroke-dashoffset: 0; stroke-linejoin: miter; stroke-miterlimit: 4; fill: rgb(0,0,0); fill-rule: nonzero; opacity: 1;"/>
</g>
		<g transform="matrix(1 0 0 1 173.72 -3.99)">
<path stroke-linecap="round" d="M 0 0 C -0.9977758 2.99332739 -1.7522025 3.94766315 -4 6 C -3.01 6.33 -2.02 6.66 -1 7 C -3.31 6.67 -5.62 6.34 -8 6 C -6.72879117 2.18637351 -4.19078006 0 0 0 Z" transform="translate(4, -3.5)" style="stroke: none; stroke-width: 1; stroke-dasharray: none; stroke-linecap: butt; stroke-dashoffset: 0; stroke-linejoin: miter; stroke-miterlimit: 4; fill: rgb(0,0,0); fill-rule: nonzero; opacity: 1;"/>
</g>
		<g transform="matrix(1 0 0 1 -63.75 29.01)">
<path stroke-linecap="round" d="M 0 0 C 3.39314652 5.08971978 5.44530236 8.76576703 5 15 C 2.82813579 12.82813579 2.3206752 11.50023469 1.375 8.625 C 1.11460937 7.85414063 0.85421875 7.08328125 0.5859375 6.2890625 C 0 4 0 4 0 0 Z" transform="translate(-2.53, -7.5)" style="stroke: none; stroke-width: 1; stroke-dasharray: none; stroke-linecap: butt; stroke-dashoffset: 0; stroke-linejoin: miter; stroke-miterlimit: 4; fill: rgb(0,0,0); fill-rule: nonzero; opacity: 1;"/>
</g>
		<g transform="matrix(1 0 0 1 180.25 -26.49)">
<path stroke-linecap="round" d="M 0 0 C 0.66 0 1.32 0 2 0 C 3.60355101 3.50776784 4.22036864 6.14354879 4 10 C 1.99940392 7.45378681 0.20784954 5.01962385 -1 2 C -0.67 1.34 -0.34 0.68 0 0 Z" transform="translate(-1.52, -5)" style="stroke: none; stroke-width: 1; stroke-dasharray: none; stroke-linecap: butt; stroke-dashoffset: 0; stroke-linejoin: miter; stroke-miterlimit: 4; fill: rgb(0,0,0); fill-rule: nonzero; opacity: 1;"/>
</g>
		<g transform="matrix(1 0 0 1 -38.42 -28.99)">
<path stroke-linecap="round" d="M 0 0 C 1.231394 3.69418201 0.64432764 6.2056261 0 10 C -0.99 10.33 -1.98 10.66 -3 11 C -2.69078116 9.54096742 -2.37751201 8.08279278 -2.0625 6.625 C -1.88847656 5.81289062 -1.71445313 5.00078125 -1.53515625 4.1640625 C -1 2 -1 2 0 0 Z" transform="translate(1.14, -5.5)" style="stroke: none; stroke-width: 1; stroke-dasharray: none; stroke-linecap: butt; stroke-dashoffset: 0; stroke-linejoin: miter; stroke-miterlimit: 4; fill: rgb(0,0,0); fill-rule: nonzero; opacity: 1;"/>
</g>
</g>
</g>
</svg>