<svg xml:space="preserve" viewBox="321.8184 468.00072 453.59999999999997 146.88000000000002" version="1.1" xmlns:xlink="http://www.w3.org/1999/xlink" xmlns="http://www.w3.org/2000/svg" style="max-height: 500px" width="453.59999999999997" height="146.88000000000002">
<desc>Created with Fabric.js 5.2.4</desc>
<defs>
</defs>
<rect fill="transparent" height="100%" width="100%" y="0" x="0"/>
<g id="2dae1a30-09bc-423d-b821-6de8dbc5ec61" transform="matrix(1 0 0 1 540 540)">
<rect height="1080" width="1080" ry="0" rx="0" y="-540" x="-540" style="stroke: none; stroke-width: 1; stroke-dasharray: none; stroke-linecap: butt; stroke-dashoffset: 0; stroke-linejoin: miter; stroke-miterlimit: 4; fill: rgb(255,255,255); fill-rule: nonzero; opacity: 1; visibility: hidden;"/>
</g>
<g id="df34aeba-f58c-4679-a25e-cb581b0189ce" transform="matrix(1 0 0 1 540 540)">
</g>
<g transform="matrix(1 0 0 1 540 540)">
<g style="">
		<g transform="matrix(1 0 0 1 -51.82 0.04)">
<path stroke-linecap="round" d="M 0 0 C 9.57 0 19.14 0 29 0 C 30.093125 2.784375 31.18625 5.56875 32.3125 8.4375 C 32.65063721 9.29529053 32.98877441 10.15308105 33.3371582 11.03686523 C 35.09930348 15.54764935 36.72473045 20.07827898 38.22973633 24.6809082 C 39.06076846 27.18296025 39.93718188 29.66570724 40.82421875 32.1484375 C 41.13037109 33.00824219 41.43652344 33.86804688 41.75195312 34.75390625 C 42.3843964 36.52580369 43.0198959 38.29661278 43.65820312 40.06640625 C 43.96048828 40.91847656 44.26277344 41.77054688 44.57421875 42.6484375 C 44.84838623 43.41333496 45.12255371 44.17823242 45.4050293 44.96630859 C 46 47 46 47 46 50 C 46.66 50 47.32 50 48 50 C 48.26554687 48.86820313 48.53109375 47.73640625 48.8046875 46.5703125 C 49.97445702 41.90147757 51.50803106 37.4052498 53.125 32.875 C 53.42414307 32.0284082 53.72328613 31.18181641 54.03149414 30.30957031 C 57.62174633 20.18260222 61.31258295 10.09187825 65 0 C 74.57 0 84.14 0 94 0 C 94 27.72 94 55.44 94 84 C 87.73 84 81.46 84 75 84 C 74.505 55.29 74.505 55.29 74 26 C 72.35 31.28 70.7 36.56 69 42 C 67.70728008 45.80094528 66.40311115 49.59147463 65.0625 53.375 C 62.22325406 61.44870437 59.45461174 69.53990776 56.81469727 77.68115234 C 55.10611222 82.89388778 55.10611222 82.89388778 54 84 C 51.46950598 84.07313567 48.96695163 84.09247527 46.4375 84.0625 C 45.37112305 84.05573242 45.37112305 84.05573242 44.28320312 84.04882812 C 42.52209987 84.03700864 40.76103964 84.01907263 39 84 C 37.23726982 78.88217194 35.4775827 73.76331035 33.72045898 68.64355469 C 33.12489808 66.90955807 32.52857018 65.17582466 31.93139648 63.44238281 C 28.10960251 52.34664455 24.42812724 41.22395704 21 30 C 20.9845388 30.99265114 20.9845388 30.99265114 20.96876526 32.00535583 C 20.86094051 38.86671313 20.74632391 45.72793266 20.62768555 52.58911133 C 20.58425934 55.15288421 20.54259015 57.71668746 20.50268555 60.28051758 C 20.44516853 63.95663628 20.38142137 67.63260099 20.31640625 71.30859375 C 20.29133751 73.03981728 20.29133751 73.03981728 20.26576233 74.80601501 C 20.24581711 75.86703934 20.22587189 76.92806366 20.20532227 78.02124023 C 20.18977798 78.96055893 20.1742337 79.89987762 20.15821838 80.86766052 C 20 83 20 83 19 84 C 12.73 84 6.46 84 0 84 C 0 56.28 0 28.56 0 0 Z" transform="translate(-47, -42.04)" style="stroke: none; stroke-width: 1; stroke-dasharray: none; stroke-linecap: butt; stroke-dashoffset: 0; stroke-linejoin: miter; stroke-miterlimit: 4; fill: rgb(255,255,255); fill-rule: nonzero; opacity: 1;"/>
</g>
		<g transform="matrix(1 0 0 1 154.43 -0.16)">
<path stroke-linecap="round" d="M 0 0 C 1.36065331 -0.01210762 1.36065331 -0.01210762 2.74879456 -0.02445984 C 4.67813189 -0.03832687 6.60749403 -0.04903724 8.53686523 -0.05688477 C 11.46061519 -0.07396584 14.38319517 -0.117811 17.30664062 -0.16210938 C 19.18358545 -0.17224776 21.06053989 -0.18076026 22.9375 -0.1875 C 24.23342323 -0.21376213 24.23342323 -0.21376213 25.55552673 -0.24055481 C 34.30940788 -0.20995328 42.2216532 2.55050067 48.66015625 8.609375 C 52.38882595 12.92841741 53.61873476 17.69853139 53.33984375 23.265625 C 52.27863957 30.92145515 47.83298355 34.73185861 42.06640625 39.23828125 C 42.65808594 39.57859375 43.24976563 39.91890625 43.859375 40.26953125 C 49.42652067 43.68428944 53.94489194 46.86363588 56.06640625 53.23828125 C 57.10918928 60.03241376 57.22820753 66.30144656 53.56640625 72.30078125 C 48.6006025 78.58690459 42.7459159 81.3666016 35.06640625 83.23828125 C 32.43617488 83.53206895 29.89012597 83.74703562 27.25390625 83.86328125 C 26.50633057 83.90050293 25.75875488 83.93772461 24.98852539 83.97607422 C 17.66340797 84.2944619 10.33503682 84.34217579 3.00390625 84.36328125 C 1.26306763 84.37029053 1.26306763 84.37029053 -0.51293945 84.37744141 C -1.59148193 84.37534668 -2.67002441 84.37325195 -3.78125 84.37109375 C -4.75070557 84.36996582 -5.72016113 84.36883789 -6.71899414 84.36767578 C -8.93359375 84.23828125 -8.93359375 84.23828125 -9.93359375 83.23828125 C -10.03397106 80.68776651 -10.06976862 78.16430946 -10.06298828 75.61328125 C -10.0647406 74.81494873 -10.06649292 74.01661621 -10.06829834 73.1940918 C -10.07271742 70.54213315 -10.06977867 67.89024063 -10.06640625 65.23828125 C -10.06707927 63.4036457 -10.06804928 61.56901024 -10.06930542 59.734375 C -10.07078247 55.88410597 -10.06862761 52.03386009 -10.06396484 48.18359375 C -10.05826755 43.23671628 -10.06154652 38.28989306 -10.06753731 33.34301758 C -10.07114273 29.5530557 -10.07000442 25.76310679 -10.06740952 21.97314453 C -10.06674019 20.1486002 -10.06756885 18.3240547 -10.06988907 16.49951172 C -10.07241529 13.95406964 -10.06857545 11.40871666 -10.06298828 8.86328125 C -10.06602463 7.72088989 -10.06602463 7.72088989 -10.06912231 6.55541992 C -10.03680898 -1.35026833 -7.01976733 0.05878088 0 0 Z M 10.06640625 17.23828125 C 10.06640625 22.18828125 10.06640625 27.13828125 10.06640625 32.23828125 C 21.48562526 33.90028944 21.48562526 33.90028944 32.06640625 30.23828125 C 33.59132623 27.18844129 33.30203173 24.59594435 33.06640625 21.23828125 C 31.16803815 18.3907291 29.3181428 17.90239449 26.06640625 17.23828125 C 23.30670217 17.16901157 20.57444583 17.14410765 17.81640625 17.17578125 C 16.69878906 17.18254883 16.69878906 17.18254883 15.55859375 17.18945312 C 13.72782985 17.20118879 11.89710752 17.21912275 10.06640625 17.23828125 Z M 10.06640625 49.23828125 C 10.06640625 55.17828125 10.06640625 61.11828125 10.06640625 67.23828125 C 12.89203125 67.30015625 15.71765625 67.36203125 18.62890625 67.42578125 C 19.50490479 67.45309326 20.38090332 67.48040527 21.28344727 67.50854492 C 26.64619343 67.56486738 30.34680693 66.84408319 35.06640625 64.23828125 C 37.3938997 60.74704108 37.56939941 59.34605874 37.06640625 55.23828125 C 34.68992213 51.67355508 31.8462567 50.44262021 27.703125 49.54296875 C 21.84773255 48.86634562 15.94803004 49.13325225 10.06640625 49.23828125 Z" transform="translate(-23.31, -42.07)" style="stroke: none; stroke-width: 1; stroke-dasharray: none; stroke-linecap: butt; stroke-dashoffset: 0; stroke-linejoin: miter; stroke-miterlimit: 4; fill: rgb(255,255,255); fill-rule: nonzero; opacity: 1;"/>
</g>
		<g transform="matrix(1 0 0 1 58.92 0.24)">
<path stroke-linecap="round" d="M 0 0 C 46.2 0 46.2 0 57.75 6.1875 C 58.75546875 6.71730469 59.7609375 7.24710938 60.796875 7.79296875 C 61.52390625 8.19128906 62.2509375 8.58960938 63 9 C 63 9.66 63 10.32 63 11 C 63.639375 11.268125 64.27875 11.53625 64.9375 11.8125 C 67 13 67 13 68 16 C 68.66 16 69.32 16 70 16 C 76.56735063 28.2323172 79.57679149 40.44720998 75.875 54.3125 C 74.03001365 59.54874697 71.40657289 64.60871463 68 69 C 66.515 69.495 66.515 69.495 65 70 C 65 70.66 65 71.32 65 72 C 47.42203153 88.10983115 21.68260712 84 0 84 C 0 56.28 0 28.56 0 0 Z M 19 18 C 19 33.51 19 49.02 19 65 C 35.5362173 65.67910924 35.5362173 65.67910924 50 59 C 55.72982315 51.80440814 56.74693685 45.05038483 56 36 C 55.23080337 33.14234506 54.22644081 30.70839013 53 28 C 52.34 28 51.68 28 51 28 C 51 27.34 51 26.68 51 26 C 41.6454445 17.09089952 31.64461406 18 19 18 Z" transform="translate(-38.74, -42.23)" style="stroke: none; stroke-width: 1; stroke-dasharray: none; stroke-linecap: butt; stroke-dashoffset: 0; stroke-linejoin: miter; stroke-miterlimit: 4; fill: rgb(255,255,255); fill-rule: nonzero; opacity: 1;"/>
</g>
		<g transform="matrix(1 0 0 1 -154.32 0)">
<path stroke-linecap="round" d="M 0 0 C 22.11 0 44.22 0 67 0 C 67 5.61 67 11.22 67 17 C 59.08 17 51.16 17 43 17 C 43 39.11 43 61.22 43 84 C 36.73 84 30.46 84 24 84 C 23 83 23 83 22.87974548 80.37413025 C 22.88196609 79.20386795 22.88418671 78.03360565 22.88647461 76.82788086 C 22.88632858 76.18399918 22.88618256 75.54011749 22.8860321 74.87672424 C 22.88673115 72.73939697 22.89452309 70.60215587 22.90234375 68.46484375 C 22.90420796 66.98653715 22.90563185 65.50822993 22.90663147 64.02992249 C 22.91045641 60.13201198 22.92028648 56.23413851 22.93133545 52.33624268 C 22.94155008 48.36153667 22.9461292 44.38682471 22.95117188 40.41210938 C 22.96190878 32.60805404 22.97950538 24.80403692 23 17 C 15.41 17 7.82 17 0 17 C 0 11.39 0 5.78 0 0 Z" transform="translate(-33.5, -42)" style="stroke: none; stroke-width: 1; stroke-dasharray: none; stroke-linecap: butt; stroke-dashoffset: 0; stroke-linejoin: miter; stroke-miterlimit: 4; fill: rgb(255,255,255); fill-rule: nonzero; opacity: 1;"/>
</g>
		<g transform="matrix(1 0 0 1 148.11 0.02)">
<path stroke-linecap="round" d="M 0 0 C 1.084021 0.00523682 2.16804199 0.01047363 3.28491211 0.01586914 C 5.03964844 0.02070313 5.03964844 0.02070313 6.82983398 0.02563477 C 8.67738281 0.03820312 8.67738281 0.03820312 10.56225586 0.05102539 C 12.41560547 0.05779297 12.41560547 0.05779297 14.30639648 0.06469727 C 17.37089703 0.07652931 20.43530307 0.09301366 23.49975586 0.11352539 C 23.49975586 0.44352539 23.49975586 0.77352539 23.49975586 1.11352539 C 15.24975586 1.11352539 6.99975586 1.11352539 -1.50024414 1.11352539 C -1.50024414 27.84352539 -1.50024414 54.57352539 -1.50024414 82.11352539 C 5.32663086 81.98977539 12.15350586 81.86602539 19.18725586 81.73852539 C 22.4080188 81.68752686 22.4080188 81.68752686 25.69384766 81.63549805 C 27.40390559 81.6002782 29.11394925 81.56435541 30.82397461 81.52758789 C 31.70525024 81.51622803 32.58652588 81.50486816 33.49450684 81.49316406 C 37.97656129 81.38764413 41.38486626 81.06449627 45.49975586 79.11352539 C 48.31225586 78.98852539 48.31225586 78.98852539 50.49975586 79.11352539 C 46.16405837 83.44922288 39.54440785 83.48025088 33.68725586 83.73852539 C 32.93968018 83.77574707 32.19210449 83.81296875 31.421875 83.85131836 C 24.09675758 84.16970604 16.76838642 84.21741994 9.43725586 84.23852539 C 7.69641724 84.24553467 7.69641724 84.24553467 5.92041016 84.25268555 C 4.84186768 84.25059082 3.7633252 84.24849609 2.65209961 84.24633789 C 1.68264404 84.24520996 0.71318848 84.24408203 -0.28564453 84.24291992 C -2.50024414 84.11352539 -2.50024414 84.11352539 -3.50024414 83.11352539 C -3.60062145 80.56301065 -3.63641902 78.03955361 -3.62963867 75.48852539 C -3.63139099 74.69019287 -3.63314331 73.89186035 -3.63494873 73.06933594 C -3.63936781 70.4173773 -3.63642907 67.76548477 -3.63305664 65.11352539 C -3.63372966 63.27888984 -3.63469968 61.44425438 -3.63595581 59.60961914 C -3.63743286 55.75935011 -3.635278 51.90910424 -3.63061523 48.05883789 C -3.62491794 43.11196042 -3.62819691 38.1651372 -3.6341877 33.21826172 C -3.63779312 29.42829984 -3.63665481 25.63835093 -3.63405991 21.84838867 C -3.63339058 20.02384434 -3.63421924 18.19929884 -3.63653946 16.37475586 C -3.63906568 13.82931378 -3.63522584 11.2839608 -3.62963867 8.73852539 C -3.63267502 7.59613403 -3.63267502 7.59613403 -3.63577271 6.43066406 C -3.61015832 0.16392185 -3.61015832 0.16392185 0 0 Z" transform="translate(-23.43, -42.13)" style="stroke: none; stroke-width: 1; stroke-dasharray: none; stroke-linecap: butt; stroke-dashoffset: 0; stroke-linejoin: miter; stroke-miterlimit: 4; fill: rgb(255,255,255); fill-rule: nonzero; opacity: 1;"/>
</g>
		<g transform="matrix(1 0 0 1 -88.29 0)">
<path stroke-linecap="round" d="M 0 0 C 0.33 0 0.66 0 1 0 C 1.01030746 0.89900528 1.02061493 1.79801056 1.03123474 2.72425842 C 1.12937749 11.21335495 1.23191517 19.70238471 1.33933926 28.19136906 C 1.39440789 32.55520779 1.44780134 36.9190534 1.49731445 41.28295898 C 1.54519597 45.49755323 1.59754575 49.71207084 1.65294075 53.9265728 C 1.67325702 55.53122476 1.69198706 57.13589764 1.70907402 58.74058723 C 1.73335734 60.99518482 1.7633766 63.24964077 1.79467773 65.50415039 C 1.81022202 66.78544327 1.8257663 68.06673615 1.84178162 69.38685608 C 1.71640856 75.62333039 1.71640856 75.62333039 4 81 C 5.80812724 81.15091913 7.62330617 81.22169008 9.4375 81.25 C 10.42621094 81.27578125 11.41492188 81.3015625 12.43359375 81.328125 C 13.28050781 81.21984375 14.12742188 81.1115625 15 81 C 17.21448895 77.67826658 17.25727955 76.60687861 17.28710938 72.73413086 C 17.30052368 71.65969223 17.31393799 70.5852536 17.32775879 69.47825623 C 17.33303589 68.31883011 17.33831299 67.15940399 17.34375 65.96484375 C 17.3583728 64.77524551 17.37299561 63.58564728 17.38806152 62.36000061 C 17.45047183 57.25923363 17.49001386 52.15834441 17.53173828 47.05737305 C 17.56537249 43.33889819 17.61050653 39.62068608 17.65625 35.90234375 C 17.6615271 34.7408934 17.6668042 33.57944305 17.67224121 32.38279724 C 17.68565552 31.31151077 17.69906982 30.2402243 17.71289062 29.13647461 C 17.72018188 28.19066025 17.72747314 27.24484589 17.73498535 26.27037048 C 18 24 18 24 20 22 C 20.84596428 25.64500779 21.10226831 28.95484118 21.03759766 32.69238281 C 21.02072906 33.80993958 21.00386047 34.92749634 20.98648071 36.07891846 C 20.9625827 37.27490662 20.93868469 38.47089478 20.9140625 39.703125 C 20.89282318 40.9366571 20.87158386 42.17018921 20.84970093 43.44110107 C 20.79168649 46.70899793 20.72842668 49.97674409 20.66339111 53.24450684 C 20.62492135 55.2541086 20.59050808 57.26373713 20.55761719 59.2734375 C 20.49424231 63.12511658 20.42407849 66.97660828 20.3515625 70.828125 C 20.33171295 72.03221008 20.3118634 73.23629517 20.29141235 74.47686768 C 20.26823944 75.5818158 20.24506653 76.68676392 20.22119141 77.82519531 C 20.20263092 78.80272766 20.18407043 79.78026001 20.16494751 80.78741455 C 20 83 20 83 19 84 C 12.73 84 6.46 84 0 84 C 0 56.28 0 28.56 0 0 Z" transform="translate(-10.52, -42)" style="stroke: none; stroke-width: 1; stroke-dasharray: none; stroke-linecap: butt; stroke-dashoffset: 0; stroke-linejoin: miter; stroke-miterlimit: 4; fill: rgb(255,255,255); fill-rule: nonzero; opacity: 1;"/>
</g>
		<g transform="matrix(1 0 0 1 -154.88 8.5)">
<path stroke-linecap="round" d="M 0 0 C 0.33 0 0.66 0 1 0 C 1 22.11 1 44.22 1 67 C -5.27 67 -11.54 67 -18 67 C -19 66 -19 66 -19.12025452 63.41209412 C -19.11803391 62.25959671 -19.11581329 61.1070993 -19.11352539 59.91967773 C -19.11344986 58.61840439 -19.11337433 57.31713104 -19.11329651 55.97642517 C -19.10818909 54.54548098 -19.10297308 53.11453718 -19.09765625 51.68359375 C -19.09579203 50.2277074 -19.09436815 48.77182043 -19.09336853 47.31593323 C -19.08954365 43.47720621 -19.07971364 39.63851681 -19.06866455 35.79980469 C -19.05844978 31.88542184 -19.05387077 27.97103294 -19.04882812 24.05664062 C -19.03809134 16.37107657 -19.02101529 8.68554355 -19 1 C -16.3141831 3.6858169 -16.72753174 5.06992879 -16.68115234 8.82666016 C -16.66128265 10.04777496 -16.64141296 11.26888977 -16.62094116 12.52700806 C -16.60906392 13.86435769 -16.59740111 15.20170925 -16.5859375 16.5390625 C -16.56723251 17.90385112 -16.5476596 19.26862811 -16.5272522 20.63339233 C -16.47585395 24.22706243 -16.43626973 27.82077005 -16.39910889 31.41461182 C -16.35911721 35.0811904 -16.3080029 38.74761185 -16.2578125 42.4140625 C -16.16096215 49.60927556 -16.0776147 56.80454903 -16 64 C -8.08 64.99 -8.08 64.99 0 66 C 0 44.22 0 22.44 0 0 Z" transform="translate(9.06, -33.5)" style="stroke: none; stroke-width: 1; stroke-dasharray: none; stroke-linecap: butt; stroke-dashoffset: 0; stroke-linejoin: miter; stroke-miterlimit: 4; fill: rgb(255,255,255); fill-rule: nonzero; opacity: 1;"/>
</g>
		<g transform="matrix(1 0 0 1 -20.82 0)">
<path stroke-linecap="round" d="M 0 0 C 9.57 0 19.14 0 29 0 C 29 27.72 29 55.44 29 84 C 22.73 84 16.46 84 10 84 C 10 83.67 10 83.34 10 83 C 15.94 83 21.88 83 28 83 C 28 55.94 28 28.88 28 1 C 19.42 1 10.84 1 2 1 C 1.67 2.65 1.34 4.3 1 6 C 0.67 6.99 0.34 7.98 0 9 C -0.99 9.33 -1.98 9.66 -3 10 C -2.01 6.7 -1.02 3.4 0 0 Z" transform="translate(-13, -42)" style="stroke: none; stroke-width: 1; stroke-dasharray: none; stroke-linecap: butt; stroke-dashoffset: 0; stroke-linejoin: miter; stroke-miterlimit: 4; fill: rgb(255,255,255); fill-rule: nonzero; opacity: 1;"/>
</g>
		<g transform="matrix(1 0 0 1 21.75 0.5)">
<path stroke-linecap="round" d="M 0 0 C 0.33 0 0.66 0 1 0 C 1.36565155 4.06155183 1.71550624 8.12431503 2.0625 12.1875 C 2.16626953 13.33798828 2.27003906 14.48847656 2.37695312 15.67382812 C 2.51713867 17.34155273 2.51713867 17.34155273 2.66015625 19.04296875 C 2.74918213 20.06414795 2.83820801 21.08532715 2.92993164 22.13745117 C 2.99881719 24.95167798 2.62957465 27.26836006 2 30 C 1.91052418 31.83162259 1.86984888 33.66620048 1.875 35.5 C 1.87242187 36.4178125 1.86984375 37.335625 1.8671875 38.28125 C 1.93149518 41.00537006 1.93149518 41.00537006 2.5390625 43.6484375 C 3.12295899 46.62729926 2.51657101 49.02971669 2 52 C 2.33 52.99 2.66 53.98 3 55 C 3.42278416 62.36141834 2.79235412 69.68487356 2 77 C 1.34 77 0.68 77 0 77 C 0 51.59 0 26.18 0 0 Z" transform="translate(-1.57, -38.5)" style="stroke: none; stroke-width: 1; stroke-dasharray: none; stroke-linecap: butt; stroke-dashoffset: 0; stroke-linejoin: miter; stroke-miterlimit: 4; fill: rgb(255,255,255); fill-rule: nonzero; opacity: 1;"/>
</g>
		<g transform="matrix(1 0 0 1 140.18 -0.5)">
<path stroke-linecap="round" d="M 0 0 C 7.92 0 15.84 0 24 0 C 24 0.33 24 0.66 24 1 C 16.41 1 8.82 1 1 1 C 1.1079015 11.02234936 1.21993571 21.04462875 1.33933926 31.0668478 C 1.39461007 35.72007769 1.44803658 40.37331381 1.49731445 45.02661133 C 1.54489685 49.51350117 1.59723717 54.00031212 1.65294075 58.48710823 C 1.67339216 60.20278025 1.69210053 61.91847393 1.70907402 63.63418388 C 1.73305665 66.02890769 1.76311912 68.42348102 1.79467773 70.81811523 C 1.8004332 71.53452682 1.80618866 72.25093842 1.81211853 72.98905945 C 1.58238175 76.27756949 1.58238175 76.27756949 3 79 C 5.28988781 79.15888092 7.58443441 79.25138073 9.87890625 79.31640625 C 10.90889992 79.3475779 10.90889992 79.3475779 11.95970154 79.37937927 C 14.16052935 79.44494143 16.36147975 79.50379015 18.5625 79.5625 C 20.05144514 79.60567892 21.54037773 79.649293 23.02929688 79.69335938 C 26.68606553 79.8006293 30.34297318 79.90187772 34 80 C 34 80.33 34 80.66 34 81 C 22.78 81 11.56 81 0 81 C 0 54.27 0 27.54 0 0 Z" transform="translate(-17, -40.5)" style="stroke: none; stroke-width: 1; stroke-dasharray: none; stroke-linecap: butt; stroke-dashoffset: 0; stroke-linejoin: miter; stroke-miterlimit: 4; fill: rgb(255,255,255); fill-rule: nonzero; opacity: 1;"/>
</g>
		<g transform="matrix(1 0 0 1 -157.32 -33.5)">
<path stroke-linecap="round" d="M 0 0 C 20.13 0 40.26 0 61 0 C 61 0.33 61 0.66 61 1 C 32.785 1.495 32.785 1.495 4 2 C 1.50611852 7.92201871 1.50611852 7.92201871 3 14 C 9.6 14 16.2 14 23 14 C 23 14.99 23 15.98 23 17 C 15.41 17 7.82 17 0 17 C 0 11.39 0 5.78 0 0 Z" transform="translate(-30.5, -8.5)" style="stroke: none; stroke-width: 1; stroke-dasharray: none; stroke-linecap: butt; stroke-dashoffset: 0; stroke-linejoin: miter; stroke-miterlimit: 4; fill: rgb(255,255,255); fill-rule: nonzero; opacity: 1;"/>
</g>
		<g transform="matrix(1 0 0 1 48.18 38.44)">
<path stroke-linecap="round" d="M 0 0 C -1 2 -1 2 -3.80078125 3.03515625 C -4.95964844 3.37417969 -6.11851562 3.71320313 -7.3125 4.0625 C -8.46363281 4.40410156 -9.61476563 4.74570313 -10.80078125 5.09765625 C -16.25972232 6.63735758 -21.01451593 7.13387885 -26.703125 7.09765625 C -27.95980988 7.09553383 -27.95980988 7.09553383 -29.24188232 7.09336853 C -31.91129157 7.08778197 -34.5806162 7.07523194 -37.25 7.0625 C -39.06249879 7.05748326 -40.87499889 7.05292066 -42.6875 7.04882812 C -47.12503248 7.03781694 -51.56250191 7.02056155 -56 7 C -56 6.01 -56 5.02 -56 4 C -54.87094238 4.02094727 -53.74188477 4.04189453 -52.57861328 4.06347656 C -48.34811324 4.13644468 -44.11766763 4.18200412 -39.88671875 4.21972656 C -38.06338108 4.23971364 -36.24010644 4.26691286 -34.41699219 4.30175781 C -21.25405858 4.80562033 -21.25405858 4.80562033 -8.8828125 0.890625 C -5.86006235 -0.53922362 -3.28234974 -0.28542172 0 0 Z" transform="translate(28, -3.44)" style="stroke: none; stroke-width: 1; stroke-dasharray: none; stroke-linecap: butt; stroke-dashoffset: 0; stroke-linejoin: miter; stroke-miterlimit: 4; fill: rgb(255,255,255); fill-rule: nonzero; opacity: 1;"/>
</g>
		<g transform="matrix(1 0 0 1 -52.32 33.5)">
<path stroke-linecap="round" d="M 0 0 C 0.99 0 1.98 0 3 0 C 4.19287411 3.87684087 5 6.91621923 5 11 C 5.66 11 6.32 11 7 11 C 7 11.99 7 12.98 7 14 C 8.79093191 14.08086147 10.58289628 14.13912702 12.375 14.1875 C 13.37273437 14.22230469 14.37046875 14.25710937 15.3984375 14.29296875 C 16.68621094 14.14794922 16.68621094 14.14794922 18 14 C 20.18975773 10.71536341 20.99806563 7.79303725 22 4 C 22.66 4 23.32 4 24 4 C 24.33 3.34 24.66 2.68 25 2 C 24.73988711 3.37706825 24.46626234 4.75158555 24.1875 6.125 C 24.03667969 6.89070312 23.88585937 7.65640625 23.73046875 8.4453125 C 23 11 23 11 20 17 C 15.05 17 10.1 17 5 17 C 4.175 14.751875 3.35 12.50375 2.5 10.1875 C 2.23896484 9.48391357 1.97792969 8.78032715 1.70898438 8.05541992 C 0.68412514 5.22363626 0 3.03435748 0 0 Z" transform="translate(-12.5, -8.5)" style="stroke: none; stroke-width: 1; stroke-dasharray: none; stroke-linecap: butt; stroke-dashoffset: 0; stroke-linejoin: miter; stroke-miterlimit: 4; fill: rgb(255,255,255); fill-rule: nonzero; opacity: 1;"/>
</g>
		<g transform="matrix(1 0 0 1 152.72 -18.5)">
<path stroke-linecap="round" d="M 0 0 C 2.13586678 3.20380017 2.23132175 4.01939967 2.125 7.6875 C 2.10695313 8.49574219 2.08890625 9.30398437 2.0703125 10.13671875 C 2.04710937 10.75160156 2.02390625 11.36648437 2 12 C 1.01 12.495 1.01 12.495 0 13 C 0.02320313 12.37351563 0.04640625 11.74703125 0.0703125 11.1015625 C 0.08835937 10.28429687 0.10640625 9.46703125 0.125 8.625 C 0.14820313 7.81289062 0.17140625 7.00078125 0.1953125 6.1640625 C 0.21370051 3.78657757 0.21370051 3.78657757 -2 2 C -5.9838046 0.71875303 -10.0998403 0.66113935 -14.25 0.4375 C -14.99507813 0.39431641 -15.74015625 0.35113281 -16.5078125 0.30664062 C -18.338349 0.20103275 -20.16915176 0.10005799 -22 0 C -22 4.95 -22 9.9 -22 15 C -19.69 15 -17.38 15 -15 15 C -15 15.33 -15 15.66 -15 16 C -17.64 16 -20.28 16 -23 16 C -23.02684312 13.18743719 -23.04676188 10.37512759 -23.0625 7.5625 C -23.07087891 6.76005859 -23.07925781 5.95761719 -23.08789062 5.13085938 C -23.0965143 3.08704779 -23.0522815 1.04316098 -23 -1 C -20.65232612 -3.34767388 -15.58720801 -2.77906346 -12.44921875 -3 C -7.93077886 -3 -3.94305772 -2.27379988 0 0 Z" transform="translate(10.47, -6.5)" style="stroke: none; stroke-width: 1; stroke-dasharray: none; stroke-linecap: butt; stroke-dashoffset: 0; stroke-linejoin: miter; stroke-miterlimit: 4; fill: rgb(255,255,255); fill-rule: nonzero; opacity: 1;"/>
</g>
		<g transform="matrix(1 0 0 1 45.68 -39.63)">
<path stroke-linecap="round" d="M 0 0 C 5.33444247 -0.07492194 10.66856946 -0.12896171 16.00341797 -0.16479492 C 17.81304265 -0.17975449 19.6226319 -0.20012957 21.43212891 -0.22631836 C 31.7388543 -0.37160387 41.13331416 -0.35059355 51 3 C 50.01 3.66 49.02 4.32 48 5 C 48 4.34 48 3.68 48 3 C 47.21753906 3.01160156 46.43507813 3.02320313 45.62890625 3.03515625 C 44.61699219 3.04417969 43.60507812 3.05320313 42.5625 3.0625 C 41.55316406 3.07410156 40.54382813 3.08570313 39.50390625 3.09765625 C 37 3 37 3 36 2 C 33.48119483 1.84011509 30.98657734 1.74065775 28.46484375 1.68359375 C 27.33496788 1.6524221 27.33496788 1.6524221 26.18226624 1.62062073 C 23.7674401 1.55504575 21.35250202 1.49620379 18.9375 1.4375 C 17.30402471 1.3943223 15.6705609 1.35070827 14.03710938 1.30664062 C 10.02485536 1.19935638 6.01248836 1.09811179 2 1 C 1.67 1.99 1.34 2.98 1 4 C 0.67 2.68 0.34 1.36 0 0 Z" transform="translate(-25.5, -2.36)" style="stroke: none; stroke-width: 1; stroke-dasharray: none; stroke-linecap: butt; stroke-dashoffset: 0; stroke-linejoin: miter; stroke-miterlimit: 4; fill: rgb(255,255,255); fill-rule: nonzero; opacity: 1;"/>
</g>
		<g transform="matrix(1 0 0 1 148.68 39.54)">
<path stroke-linecap="round" d="M 0 0 C -4.33602501 4.33602501 -10.95514162 4.36601036 -16.8125 4.625 C -17.93277588 4.68192017 -17.93277588 4.68192017 -19.07568359 4.73999023 C -30.373159 5.2393074 -41.694861 5.08538625 -53 5 C -53 4.67 -53 4.34 -53 4 C -51.06966919 3.92483154 -51.06966919 3.92483154 -49.1003418 3.84814453 C -44.33088588 3.65995635 -39.56200986 3.45952585 -34.79321289 3.25537109 C -32.72824661 3.16868829 -30.6631377 3.08533682 -28.59790039 3.00537109 C -25.63123571 2.88992558 -22.6652884 2.76255182 -19.69921875 2.6328125 C -18.7741301 2.59938751 -17.84904144 2.56596252 -16.8959198 2.53152466 C -16.03525406 2.49163422 -15.17458832 2.45174377 -14.2878418 2.41064453 C -13.15199898 2.36401169 -13.15199898 2.36401169 -11.99320984 2.31643677 C -7.46755738 1.59795605 -5.06072695 -0.19097083 0 0 Z" transform="translate(26.5, -2.54)" style="stroke: none; stroke-width: 1; stroke-dasharray: none; stroke-linecap: butt; stroke-dashoffset: 0; stroke-linejoin: miter; stroke-miterlimit: 4; fill: rgb(255,255,255); fill-rule: nonzero; opacity: 1;"/>
</g>
		<g transform="matrix(1 0 0 1 94.84 -3.5)">
<path stroke-linecap="round" d="M 0 0 C 0.66 0 1.32 0 2 0 C 5.23703882 8.18893748 5.7896082 16.28354588 5 25 C 4.37533343 26.35351908 3.71578892 27.69238062 3 29 C 2.98018066 28.42032471 2.96036133 27.84064941 2.93994141 27.2434082 C 2.84427399 24.59934063 2.73476547 21.9560183 2.625 19.3125 C 2.5940625 18.40048828 2.563125 17.48847656 2.53125 16.54882812 C 2.32843363 11.90095305 1.95361518 8.28048203 0 4 C 0 2.68 0 1.36 0 0 Z" transform="translate(-2.66, -14.5)" style="stroke: none; stroke-width: 1; stroke-dasharray: none; stroke-linecap: butt; stroke-dashoffset: 0; stroke-linejoin: miter; stroke-miterlimit: 4; fill: rgb(255,255,255); fill-rule: nonzero; opacity: 1;"/>
</g>
		<g transform="matrix(1 0 0 1 -83.32 -36.5)">
<path stroke-linecap="round" d="M 0 0 C 9.24 0 18.48 0 28 0 C 28.33 1.65 28.66 3.3 29 5 C 28.34 5 27.68 5 27 5 C 27 3.68 27 2.36 27 1 C 19.08 1.33 11.16 1.66 3 2 C 2.67 3.65 2.34 5.3 2 7 C 1.34 8.32 0.68 9.64 0 11 C 0 7.37 0 3.74 0 0 Z" transform="translate(-14.5, -5.5)" style="stroke: none; stroke-width: 1; stroke-dasharray: none; stroke-linecap: butt; stroke-dashoffset: 0; stroke-linejoin: miter; stroke-miterlimit: 4; fill: rgb(255,255,255); fill-rule: nonzero; opacity: 1;"/>
</g>
		<g transform="matrix(1 0 0 1 67.68 37.96)">
<path stroke-linecap="round" d="M 0 0 C -1 2 -1 2 -3.8359375 3.0703125 C -5.00382812 3.41835937 -6.17171875 3.76640625 -7.375 4.125 C -8.53773438 4.47820312 -9.70046875 4.83140625 -10.8984375 5.1953125 C -14 6 -14 6 -17 6 C -17 5.34 -17 4.68 -17 4 C -11.15439723 1.36536213 -6.45512034 -0.56131481 0 0 Z" transform="translate(8.5, -2.95)" style="stroke: none; stroke-width: 1; stroke-dasharray: none; stroke-linecap: butt; stroke-dashoffset: 0; stroke-linejoin: miter; stroke-miterlimit: 4; fill: rgb(255,255,255); fill-rule: nonzero; opacity: 1;"/>
</g>
		<g transform="matrix(1 0 0 1 -62.3 32.5)">
<path stroke-linecap="round" d="M 0 0 C 0.99 0 1.98 0 3 0 C 4.7479503 5.24385089 5.19392201 9.47322267 5 15 C 2.49639008 10.37795091 0 5.30049345 0 0 Z" transform="translate(-2.52, -7.5)" style="stroke: none; stroke-width: 1; stroke-dasharray: none; stroke-linecap: butt; stroke-dashoffset: 0; stroke-linejoin: miter; stroke-miterlimit: 4; fill: rgb(255,255,255); fill-rule: nonzero; opacity: 1;"/>
</g>
		<g transform="matrix(1 0 0 1 -65.41 -27.5)">
<path stroke-linecap="round" d="M 0 0 C 5.14240506 9.88924051 5.14240506 9.88924051 4.6875 13.4375 C 4.460625 13.953125 4.23375 14.46875 4 15 C 2 14 2 14 0.875 11.4375 C -0.14837318 7.41710538 -0.14258282 4.13490187 0 0 Z" transform="translate(-2.4, -7.5)" style="stroke: none; stroke-width: 1; stroke-dasharray: none; stroke-linecap: butt; stroke-dashoffset: 0; stroke-linejoin: miter; stroke-miterlimit: 4; fill: rgb(255,255,255); fill-rule: nonzero; opacity: 1;"/>
</g>
		<g transform="matrix(1 0 0 1 -45.78 -4.5)">
<path stroke-linecap="round" d="M 0 0 C 2.1519437 3.22791555 2.20086443 4.28400809 2 8 C 1.34 8 0.68 8 0 8 C -0.66 10.31 -1.32 12.62 -2 15 C -2.66 14.67 -3.32 14.34 -4 14 C -3.79503906 13.32453125 -3.59007812 12.6490625 -3.37890625 11.953125 C -3.10949219 11.06109375 -2.84007812 10.1690625 -2.5625 9.25 C -2.16224609 7.92742187 -2.16224609 7.92742187 -1.75390625 6.578125 C -1.11531506 4.39434165 -0.53224167 2.21164502 0 0 Z" transform="translate(0.96, -7.5)" style="stroke: none; stroke-width: 1; stroke-dasharray: none; stroke-linecap: butt; stroke-dashoffset: 0; stroke-linejoin: miter; stroke-miterlimit: 4; fill: rgb(255,255,255); fill-rule: nonzero; opacity: 1;"/>
</g>
		<g transform="matrix(1 0 0 1 181.72 -16.5)">
<path stroke-linecap="round" d="M 0 0 C 0.33 0 0.66 0 1 0 C 1.3457886 5.64788053 0.56064053 9.07569129 -2 14 C -2.99 14.495 -2.99 14.495 -4 15 C -3.34 11.04 -2.68 7.08 -2 3 C -1.34 3 -0.68 3 0 3 C 0 2.01 0 1.02 0 0 Z" transform="translate(1.46, -7.5)" style="stroke: none; stroke-width: 1; stroke-dasharray: none; stroke-linecap: butt; stroke-dashoffset: 0; stroke-linejoin: miter; stroke-miterlimit: 4; fill: rgb(255,255,255); fill-rule: nonzero; opacity: 1;"/>
</g>
		<g transform="matrix(1 0 0 1 62.18 -39.5)">
<path stroke-linecap="round" d="M 0 0 C 6.14154225 0.58490879 12.00679849 1.54066252 18 3 C 17.01 3.66 16.02 4.32 15 5 C 15 4.34 15 3.68 15 3 C 14.25234375 3.03480469 13.5046875 3.06960937 12.734375 3.10546875 C 11.74953125 3.13253906 10.7646875 3.15960938 9.75 3.1875 C 8.28820312 3.23970703 8.28820312 3.23970703 6.796875 3.29296875 C 3.62531258 2.96075202 2.32959693 2.11327721 0 0 Z" transform="translate(-9, -2.5)" style="stroke: none; stroke-width: 1; stroke-dasharray: none; stroke-linecap: butt; stroke-dashoffset: 0; stroke-linejoin: miter; stroke-miterlimit: 4; fill: rgb(255,255,255); fill-rule: nonzero; opacity: 1;"/>
</g>
		<g transform="matrix(1 0 0 1 37.18 -20)">
<path stroke-linecap="round" d="M 0 0 C 0.99 0 1.98 0 3 0 C 3 2.64 3 5.28 3 8 C 2.01 7.67 1.02 7.34 0 7 C -0.38133299 5.0085944 -0.71325582 3.00720923 -1 1 C -0.67 0.67 -0.34 0.34 0 0 Z" transform="translate(-1, -4)" style="stroke: none; stroke-width: 1; stroke-dasharray: none; stroke-linecap: butt; stroke-dashoffset: 0; stroke-linejoin: miter; stroke-miterlimit: 4; fill: rgb(255,255,255); fill-rule: nonzero; opacity: 1;"/>
</g>
		<g transform="matrix(1 0 0 1 -57.82 -6)">
<path stroke-linecap="round" d="M 0 0 C 2.51699845 2.51699845 3.10964078 4.57554146 4 8 C 3.625 10.375 3.625 10.375 3 12 C 3 11.34 3 10.68 3 10 C 2.01 9.67 1.02 9.34 0 9 C 0 6.03 0 3.06 0 0 Z" transform="translate(-2, -6)" style="stroke: none; stroke-width: 1; stroke-dasharray: none; stroke-linecap: butt; stroke-dashoffset: 0; stroke-linejoin: miter; stroke-miterlimit: 4; fill: rgb(255,255,255); fill-rule: nonzero; opacity: 1;"/>
</g>
		<g transform="matrix(1 0 0 1 85.68 -28.5)">
<path stroke-linecap="round" d="M 0 0 C 0.66 0 1.32 0 2 0 C 2 0.66 2 1.32 2 2 C 2.639375 2.268125 3.27875 2.53625 3.9375 2.8125 C 6 4 6 4 7 7 C 7.66 7 8.32 7 9 7 C 8.67 7.66 8.34 8.32 8 9 C 6 9 6 9 4.375 7.625 C 3 6 3 6 3 4 C 2.34 4 1.68 4 1 4 C 0.67 2.68 0.34 1.36 0 0 Z" transform="translate(-4.5, -4.5)" style="stroke: none; stroke-width: 1; stroke-dasharray: none; stroke-linecap: butt; stroke-dashoffset: 0; stroke-linejoin: miter; stroke-miterlimit: 4; fill: rgb(255,255,255); fill-rule: nonzero; opacity: 1;"/>
</g>
		<g transform="matrix(1 0 0 1 44.18 -26)">
<path stroke-linecap="round" d="M 0 0 C 0.33 0.66 0.66 1.32 1 2 C 2.65 2 4.3 2 6 2 C 6.33 2.66 6.66 3.32 7 4 C 3.7 4 0.4 4 -3 4 C -2.01 2.68 -1.02 1.36 0 0 Z" transform="translate(-2, -2)" style="stroke: none; stroke-width: 1; stroke-dasharray: none; stroke-linecap: butt; stroke-dashoffset: 0; stroke-linejoin: miter; stroke-miterlimit: 4; fill: rgb(255,255,255); fill-rule: nonzero; opacity: 1;"/>
</g>
		<g transform="matrix(1 0 0 1 65.68 19.5)">
<path stroke-linecap="round" d="M 0 0 C 0.33 1.32 0.66 2.64 1 4 C -3.455 4.495 -3.455 4.495 -8 5 C -5.59078295 2.59078295 -3.05665491 1.46187844 0 0 Z" transform="translate(3.5, -2.5)" style="stroke: none; stroke-width: 1; stroke-dasharray: none; stroke-linecap: butt; stroke-dashoffset: 0; stroke-linejoin: miter; stroke-miterlimit: 4; fill: rgb(255,255,255); fill-rule: nonzero; opacity: 1;"/>
</g>
		<g transform="matrix(1 0 0 1 -65.82 20)">
<path stroke-linecap="round" d="M 0 0 C 0.99 0.33 1.98 0.66 3 1 C 2.67 3.97 2.34 6.94 2 10 C 0.35835645 6.7167129 -0.52087355 4.54553576 -1 1 C -0.67 0.67 -0.34 0.34 0 0 Z" transform="translate(-1, -5)" style="stroke: none; stroke-width: 1; stroke-dasharray: none; stroke-linecap: butt; stroke-dashoffset: 0; stroke-linejoin: miter; stroke-miterlimit: 4; fill: rgb(255,255,255); fill-rule: nonzero; opacity: 1;"/>
</g>
		<g transform="matrix(1 0 0 1 86.68 26.5)">
<path stroke-linecap="round" d="M 0 0 C 0.99 0.33 1.98 0.66 3 1 C 1.625 3 1.625 3 0 5 C -0.66 5 -1.32 5 -2 5 C -2 5.66 -2 6.32 -2 7 C -2.66 7 -3.32 7 -4 7 C -4 4 -4 4 -2 1.8125 C -1.34 1.214375 -0.68 0.61625 0 0 Z" transform="translate(0.5, -3.5)" style="stroke: none; stroke-width: 1; stroke-dasharray: none; stroke-linecap: butt; stroke-dashoffset: 0; stroke-linejoin: miter; stroke-miterlimit: 4; fill: rgb(255,255,255); fill-rule: nonzero; opacity: 1;"/>
</g>
</g>
</g>
</svg>